<svg viewBox="0 0 116.956 22.0003" fill="none" xmlns="http://www.w3.org/2000/svg">
<g id="Frame 2147223370">
<g id="RetailBook">
<path id="Vector" d="M105.661 0.396267V10.4074H106.789L110.139 6.17472H114.064L109.378 11.7692L114.101 18.0629H110.163L106.74 13.2536H105.661V18.0629H102.458V0.396267H105.661Z" fill="#ffffff"/>
<path id="Vector_2" d="M94.8766 5.85569C98.5817 5.85569 101.318 8.53022 101.318 12.1126C101.318 15.695 98.5817 18.3695 94.8766 18.3695C91.1838 18.3695 88.4602 15.695 88.4602 12.1126C88.4602 8.53022 91.1838 5.85569 94.8766 5.85569ZM94.8766 8.83693C93.0731 8.83693 91.7236 10.1865 91.7236 12.1126C91.7236 14.0388 93.0731 15.3883 94.8766 15.3883C96.6801 15.3883 98.0419 14.0388 98.0419 12.1126C98.0419 10.1865 96.6801 8.83693 94.8766 8.83693Z" fill="#ffffff"/>
<path id="Vector_3" d="M81.6136 5.85569C85.3187 5.85569 88.0545 8.53022 88.0545 12.1126C88.0545 15.695 85.3187 18.3695 81.6136 18.3695C77.9208 18.3695 75.1972 15.695 75.1972 12.1126C75.1972 8.53022 77.9208 5.85569 81.6136 5.85569ZM81.6136 8.83693C79.8101 8.83693 78.4606 10.1865 78.4606 12.1126C78.4606 14.0388 79.8101 15.3883 81.6136 15.3883C83.417 15.3883 84.7789 14.0388 84.7789 12.1126C84.7789 10.1865 83.417 8.83693 81.6136 8.83693Z" fill="#ffffff"/>
<path id="Vector_4" d="M60.3586 0.224392H67.6469C71.8007 0.224392 74.4127 1.76614 74.4127 5.16817C74.4127 6.96475 73.3169 8.40457 71.8261 8.95246C73.4571 9.50035 74.795 11.0294 74.795 12.9534C74.795 16.3809 72.3613 18.0628 68.0801 18.0628H60.3586V0.224392ZM67.9017 10.6471H63.9136V14.9283L67.9017 14.9411C69.8639 14.9411 71.0999 14.4824 71.0999 12.775C71.0999 11.1058 69.8639 10.6471 67.9017 10.6471ZM67.5449 3.35885H63.9136V7.52539H67.5577C69.3288 7.52539 70.7049 7.15588 70.7049 5.42301C70.7049 3.7411 69.3033 3.35885 67.5449 3.35885Z" fill="#ffffff"/>
<path id="Vector_5" d="M58.4929 0.224392V18.0627H55.2597V0.224392H58.4929Z" fill="#ffffff"/>
<path id="Vector_6" d="M53.3775 6.17461V18.0628H50.1754V6.17461H53.3775ZM51.758 0.224392C52.9113 0.224392 53.8069 1.13226 53.8069 2.2855C53.8069 3.43874 52.9113 4.32207 51.758 4.32207C50.6048 4.32207 49.7215 3.43874 49.7215 2.2855C49.7215 1.13226 50.6048 0.224392 51.758 0.224392Z" fill="#ffffff"/>
<path id="Vector_7" d="M48.278 6.17467V18.0628H45.1496V16.7501C44.3767 17.707 43.2234 18.3695 41.5917 18.3695C38.316 18.3695 35.8378 15.6827 35.8378 12.1126C35.8378 8.54249 38.316 5.85569 41.5917 5.85569C43.2234 5.85569 44.3644 6.51818 45.1496 7.48739V6.17467H48.278ZM42.1806 8.83693C40.3035 8.83693 39.1135 10.2969 39.1135 12.1126C39.1135 13.9284 40.3035 15.3883 42.1806 15.3883C44.0086 15.3883 45.2477 13.9897 45.2477 12.1126C45.2477 10.2355 44.0086 8.83693 42.1806 8.83693Z" fill="#ffffff"/>
<path id="Vector_8" d="M35.366 6.1759V9.02219H31.0598V13.3652C31.0598 14.8497 31.8449 15.3895 32.8387 15.3895C33.5993 15.3895 34.4213 15.0092 35.0716 14.6166L36.2493 17.1194C35.2065 17.831 34.0042 18.3708 32.3111 18.3708C29.3667 18.3708 27.8577 16.7023 27.8577 13.6229V9.02219H25.5635V6.1759H27.8577V2.64258H31.0598V6.1759H35.366Z" fill="#ffffff"/>
<path id="Vector_9" d="M19.9544 5.85569C23.3773 5.85569 25.7206 8.39526 25.7328 12.1003C25.7328 12.4684 25.7083 12.9101 25.6715 13.18H17.243C17.5866 14.8976 18.7889 15.6459 20.2979 15.6459C21.3284 15.6459 22.4449 15.2288 23.3037 14.505L25.1807 16.5661C23.8312 17.8052 22.1136 18.3695 20.1139 18.3695C16.4701 18.3695 13.9428 15.8913 13.9428 12.1494C13.9428 8.40753 16.3965 5.85569 19.9544 5.85569ZM19.9298 8.6161C18.4208 8.6161 17.5375 9.52396 17.2553 10.9962H22.5185C22.224 9.47489 21.3039 8.6161 19.9298 8.6161Z" fill="#ffffff"/>
<path id="Vector_10" d="M0.00184292 0H7.54417C11.7995 0 14.08 2.01299 14.08 5.42742C14.08 8.35772 12.0415 10.358 8.61437 10.6892L14.1055 17.8366H9.79923L4.60114 10.7402H3.55642V17.8366H0.00184292V0ZM7.48047 3.27429H3.55642V7.64426H7.48047C9.41702 7.64426 10.4235 6.93079 10.4235 5.42742C10.4235 3.94953 9.36605 3.27429 7.48047 3.27429Z" fill="#ffffff"/>
</g>
<path id="Vector_11" d="M1.72467 22.0003H116.956L115.26 19.7322H0.0391159L1.72467 22.0003Z" fill="#FF1E61"/>
</g>
</svg>
