<svg xmlns="http://www.w3.org/2000/svg" viewBox="0 0 1200 222">
<path d="M0 0 C6.6 -0.04 6.6 -0.04 40 -0.25 C44.14 -0.29 48.27 -0.32 52.53 -0.36 C57.66 -0.38 57.66 -0.38 60.08 -0.38 C61.74 -0.39 63.39 -0.4 65.05 -0.42 C83.61 -0.64 102.81 2.01 117 15.25 C125.97 25.06 129.4 35.83 129.31 48.88 C129.31 49.76 129.3 50.64 129.3 51.56 C129.07 63.76 125.17 73.72 116.75 82.75 C106.53 92.26 93.76 96.46 80 97 C86.45 106.09 93.28 114.86 100.15 123.63 C107.93 133.58 115.68 143.55 123.38 153.56 C123.66 153.93 123.66 153.93 125.09 155.78 C129 160.88 129 160.88 129 162 C94.96 165.15 94.96 165.15 85.86 160.34 C81.04 156 78.22 150.57 75.43 144.78 C73.11 140.28 70.03 136.43 66.94 132.44 C65.79 130.88 64.64 129.33 63.5 127.77 C63.22 127.38 63.22 127.38 61.78 125.42 C60.55 123.75 59.32 122.08 58.09 120.4 C56.19 117.81 54.28 115.22 52.38 112.62 C51.79 111.83 51.21 111.04 50.62 110.23 C49.55 108.77 48.47 107.33 47.38 105.88 C46.23 104.32 45.18 102.68 44.16 101.02 C42 99 42 99 33 98 C33 119.12 33 140.24 33 162 C22.11 162 11.22 162 0 162 C0 108.54 0 55.08 0 0 Z M33 30 C33 43.2 33 56.4 33 70 C36.26 70.03 36.26 70.03 52.75 70.19 C53.77 70.2 53.77 70.2 58.91 70.27 C81.93 70.45 81.93 70.45 90.12 64.12 C94.54 59.76 95.59 55.12 96 49 C95.35 44.28 94.14 39.63 91 36 C82.55 30.72 74.98 29.85 65.23 29.9 C64.3 29.9 63.38 29.91 62.43 29.91 C59.49 29.91 56.56 29.92 53.62 29.94 C51.63 29.94 49.63 29.95 47.64 29.95 C42.76 29.96 37.88 29.98 33 30 Z " fill="#0B1340"/>
<path d="M0 0 C5.21 2.77 8.6 6.85 11.21 12.07 C12.45 18.53 11.86 25.19 8.18 30.78 C4.47 35 -0.08 37.41 -5.61 38.32 C-10.56 38.58 -14.84 37.78 -19.17 35.32 C-23.54 31.38 -26.87 27.68 -27.41 21.64 C-27.57 14.88 -27.36 10.72 -23.17 5.32 C-16.84 -1.01 -8.66 -2.73 0 0 Z " fill="#0B1340"/>
<path d="M0 0 C10.23 0 20.46 0 31 0 C31 53.46 31 106.92 31 162 C20.77 162 10.54 162 0 162 C0 108.54 0 55.08 0 0 Z " fill="#0B1340"/>
<path d="M0 0 C13.18 -0.08 26.36 -0.17 39.94 -0.25 C44.06 -0.29 48.19 -0.32 52.44 -0.36 C57.57 -0.38 57.57 -0.38 59.99 -0.38 C61.64 -0.39 63.29 -0.4 64.94 -0.42 C84.75 -0.66 105.11 2.37 120.09 16.69 C128.91 27.38 130.12 39.69 129 53 C126.92 63.38 121.1 71.04 112.56 77.06 C111.05 78.06 109.53 79.04 108 80 C109.15 80.52 110.31 81.03 111.5 81.56 C120.47 86.1 127.3 93.22 131.04 102.6 C134.67 114.34 133.85 126.49 128.78 137.7 C122.54 149.03 113.17 155.08 101.07 158.93 C93.42 161.1 86.26 162.15 78.33 162.11 C77.47 162.11 76.61 162.11 75.72 162.11 C72.94 162.11 70.16 162.11 67.38 162.1 C65.66 162.1 63.94 162.1 62.22 162.09 C55.85 162.09 49.49 162.08 43.12 162.06 C28.89 162.04 14.66 162.02 0 162 C0 108.54 0 55.08 0 0 Z M33 29 C32.98 34.25 32.96 39.5 32.95 44.75 C32.94 46.54 32.93 48.33 32.92 50.12 C32.91 52.68 32.91 55.24 32.9 57.81 C32.9 58.61 32.89 59.42 32.89 60.25 C32.89 62.16 32.94 64.08 33 66 C34.98 67.98 38.85 67.16 41.55 67.17 C42.32 67.17 43.09 67.17 43.88 67.18 C45.52 67.18 47.16 67.19 48.8 67.19 C51.26 67.19 53.73 67.21 56.2 67.22 C81.02 67.32 81.02 67.32 90 61 C94.6 56.16 95.38 52.11 95.26 45.63 C94.84 41.4 93.82 38.23 91 35 C82.99 29.57 75.5 28.85 66.11 28.9 C65.16 28.9 64.21 28.91 63.23 28.91 C60.22 28.91 57.2 28.92 54.19 28.94 C52.14 28.94 50.09 28.95 48.04 28.95 C43.03 28.96 38.01 28.98 33 29 Z M33 95 C33 107.87 33 120.74 33 134 C39.03 134.07 45.06 134.13 51.08 134.16 C53.13 134.18 55.18 134.2 57.22 134.23 C85.58 134.58 85.58 134.58 93.62 128.81 C97.39 124.35 98.76 120.27 99.38 114.5 C98.75 108.71 97.41 104.62 93.56 100.19 C82.83 92.52 67.16 94.66 54.75 94.81 C52.64 94.83 50.52 94.84 48.41 94.85 C43.27 94.88 38.14 94.94 33 95 Z " fill="#0B1340"/>
<path d="M0 0 C10.23 0 20.46 0 31 0 C31 29.7 31 59.4 31 90 C42 89 42 89 45.53 85.89 C46.55 84.56 47.54 83.2 48.5 81.81 C49.04 81.1 49.58 80.38 50.13 79.64 C51.24 78.16 52.33 76.67 53.41 75.18 C55.8 71.9 58.34 68.74 60.88 65.56 C61.71 64.5 62.54 63.44 63.37 62.38 C63.8 61.86 64.23 61.33 64.68 60.8 C66 59 66 59 67.19 56.61 C68.89 53.63 70.17 51.97 73 50 C79.3 48.48 86.02 49.16 92.44 49.44 C94.24 49.48 96.04 49.52 97.83 49.56 C102.23 49.66 106.61 49.81 111 50 C107.41 54.86 103.74 59.59 99.81 64.19 C98.85 65.32 97.89 66.45 96.92 67.58 C96.44 68.15 95.95 68.71 95.45 69.3 C93.6 71.47 91.76 73.65 89.91 75.84 C86.54 79.83 83.16 83.82 79.75 87.79 C79.48 88.1 79.48 88.1 78.11 89.7 C77.06 90.91 76.02 92.12 74.97 93.33 C73.64 94.88 72.32 96.44 71 98 C70.68 98.34 70.68 98.34 69.03 100.09 C68.69 100.72 68.35 101.35 68 102 C69.11 105.5 70.66 108.14 72.94 111 C73.52 111.74 74.1 112.47 74.69 113.23 C75.31 114 75.93 114.77 76.56 115.56 C77.85 117.19 79.13 118.82 80.42 120.45 C81.04 121.24 81.66 122.03 82.3 122.84 C85.08 126.37 87.75 129.98 90.43 133.58 C92.61 136.5 94.82 139.38 97.04 142.26 C97.76 143.2 98.48 144.15 99.23 145.12 C100.68 147.01 102.14 148.9 103.59 150.79 C104.26 151.67 104.93 152.54 105.62 153.44 C106.22 154.22 106.83 155 107.45 155.81 C108.87 157.81 109.97 159.77 111 162 C78.49 164.83 78.49 164.83 70.13 160.52 C65.86 156.65 63.56 151.79 61.25 146.58 C59.09 142.12 56.05 138.32 53.06 134.38 C52.03 132.95 51 131.52 49.97 130.09 C49.48 129.42 48.98 128.74 48.47 128.05 C47 126 47 126 45.64 123.74 C44.25 121.54 44.25 121.54 41 118 C37.7 117.67 34.4 117.34 31 117 C31 131.85 31 146.7 31 162 C20.77 162 10.54 162 0 162 C0 108.54 0 55.08 0 0 Z " fill="#0B1340"/>
<path d="M0 0 C10.23 0 20.46 0 31 0 C31 10.89 31 21.78 31 33 C44.53 33 58.06 33 72 33 C72 41.91 72 50.82 72 60 C58.47 60 44.94 60 31 60 C31.07 66.73 31.16 73.45 31.26 80.18 C31.3 82.47 31.32 84.75 31.35 87.04 C31.38 90.33 31.43 93.62 31.49 96.91 C31.49 97.93 31.5 98.95 31.51 100 C31.62 105.4 31.93 109.36 35 114 C39.79 118.43 43.68 119.39 50.03 119.37 C54.72 118.79 58.81 116.96 63.12 115.09 C66 114 66 114 70 114 C71.7 117.43 73.39 120.87 75.06 124.31 C75.55 125.29 76.03 126.27 76.53 127.27 C76.99 128.21 77.44 129.15 77.91 130.11 C78.33 130.98 78.76 131.84 79.2 132.73 C80 135 80 135 79 138 C63.8 147.54 45.73 150.92 28.04 147.31 C18.79 144.73 11.87 140.21 6.32 132.34 C0.59 122.16 -0.15 111.44 -0.1 100.04 C-0.1 98.89 -0.09 97.75 -0.09 96.57 C-0.09 92.92 -0.08 89.27 -0.06 85.62 C-0.06 83.15 -0.05 80.67 -0.05 78.19 C-0.04 72.13 -0.02 66.06 0 60 C-7.26 60 -14.52 60 -22 60 C-22 51.09 -22 42.18 -22 33 C-14.74 33 -7.48 33 0 33 C0 22.11 0 11.22 0 0 Z " fill="#0B1340"/>
<path d="M0 0 C0.83 0.62 1.66 1.24 2.52 1.88 C13.64 11.39 19.71 25.61 21 40 C21.65 54.7 21.65 54.7 20 58 C-6.4 58 -32.8 58 -60 58 C-53.31 74.05 -53.31 74.05 -42.73 78.98 C-33.5 82.42 -24.19 81 -15 78 C-12.21 76.56 -9.66 75.01 -7.09 73.21 C-5 72 -5 72 -1 72 C1.37 73.94 1.37 73.94 3.88 76.56 C4.75 77.47 5.62 78.37 6.52 79.31 C9.44 82.47 12.26 85.68 15 89 C12.32 95.53 5.79 98.78 -0.42 101.49 C-18.93 108.32 -40.3 110.43 -59 103 C-73.53 96.28 -83.21 84.7 -88.96 70.03 C-94.54 53.72 -93.1 35.18 -86.29 19.44 C-78.93 5.49 -67.71 -3.91 -52.84 -9.11 C-34.59 -13.93 -15.16 -11.58 0 0 Z M-52.21 21.16 C-56.5 25.57 -59.18 30.9 -60 37 C-59 38 -59 38 -57.06 38.12 C-56.21 38.12 -55.36 38.12 -54.48 38.11 C-53.52 38.11 -52.56 38.11 -51.57 38.11 C-50.52 38.11 -49.48 38.1 -48.4 38.1 C-47.87 38.1 -47.87 38.1 -45.18 38.09 C-41.76 38.09 -38.35 38.08 -34.94 38.06 C-32.63 38.06 -30.32 38.05 -28.01 38.05 C-22.34 38.04 -16.67 38.02 -11 38 C-10 36 -10 36 -10.57 33.86 C-13.4 26.6 -16.36 21.1 -23.25 17.12 C-33.71 13.99 -43.47 14.04 -52.21 21.16 Z " fill="#0B1340"/>
<path d="M0 0 C0.64 0.6 1.28 1.2 1.94 1.81 C1.94 2.47 1.94 3.13 1.94 3.81 C2.6 3.81 3.26 3.81 3.94 3.81 C3.94 0.18 3.94 -3.45 3.94 -7.19 C13.84 -7.19 23.74 -7.19 33.94 -7.19 C33.94 29.77 33.94 66.73 33.94 104.81 C24.04 104.81 14.14 104.81 3.94 104.81 C3.61 101.51 3.28 98.21 2.94 94.81 C1.78 95.88 0.63 96.96 -0.56 98.06 C-11.51 107.62 -23.65 108.63 -37.65 108 C-50.81 106.96 -62.1 99.73 -71 90.32 C-82.56 76.3 -86.56 58.67 -85.06 40.81 C-82.51 23.57 -74.7 9.18 -60.7 -1.43 C-41.62 -14.12 -18.42 -13.16 0 0 Z M-46.52 27.88 C-53.11 36.16 -53.94 45.42 -53.33 55.65 C-52.44 62.89 -48.4 68.91 -43.25 73.88 C-35.71 79.72 -27.42 80.88 -18.06 79.81 C-9.56 77.86 -3.38 73.03 1.29 65.69 C5.5 57.7 6.23 48.68 4.29 39.87 C1.56 31.51 -2.89 25.41 -10.44 20.81 C-23.11 15.08 -37.17 17.97 -46.52 27.88 Z " fill="#0B1340"/>
<path d="M0 0 C13.03 11.21 19.6 25.73 21.05 42.66 C21.6 57.55 17.33 72.53 7.48 83.83 C5.93 85.45 4.37 87.06 2.79 88.64 C2.15 89.29 1.51 89.94 0.85 90.61 C-12.39 103.17 -29.32 105.44 -46.82 104.99 C-63.16 104.19 -77 97.49 -88.21 85.64 C-100.28 71.1 -103.72 55.09 -102.21 36.64 C-100.01 20.96 -91.68 8.2 -79.4 -1.61 C-55.18 -18.47 -23.61 -17.35 0 0 Z M-66.21 27.64 C-71.24 36.56 -72.69 45.75 -70.09 55.7 C-67.06 64.74 -61.44 70.09 -53.21 74.64 C-45.83 78.25 -36.94 77.52 -29.34 74.95 C-21.62 71.77 -16.95 67.12 -13.21 59.64 C-10.01 51.71 -9.51 40.67 -12.77 32.64 C-16.64 25.58 -21.72 19.83 -29.14 16.49 C-43.11 12.62 -57.28 15.71 -66.21 27.64 Z " fill="#0B1340"/>
<path d="M0 0 C2.49 2.19 4.83 4.45 7.14 6.82 C7.79 7.45 8.44 8.07 9.1 8.72 C19.03 18.99 22.55 32.74 22.46 46.64 C22.45 47.51 22.45 48.39 22.44 49.29 C22.15 65.01 16.73 77.99 5.78 89.35 C-6.72 101.09 -21.67 106.24 -38.61 106.14 C-39.57 106.13 -40.54 106.13 -41.54 106.12 C-58.45 105.83 -72.12 100.59 -84.16 88.68 C-95.74 76.41 -101.29 61.76 -100.83 44.87 C-100.19 31.88 -96.53 21.33 -88.86 10.82 C-88.39 10.18 -87.93 9.53 -87.46 8.87 C-67.32 -16.92 -25.08 -19.11 0 0 Z M-61.73 25.51 C-68.56 34.18 -70.03 42.95 -68.86 53.82 C-67.17 62.06 -63.51 67.71 -56.86 72.82 C-49.14 77.63 -41.89 78.6 -32.86 77.82 C-24.71 75.89 -17.77 71.47 -13.29 64.32 C-8.78 55.67 -7.47 47.33 -9.98 37.82 C-12.65 29.79 -17.16 22.75 -24.86 18.82 C-37.58 13.64 -52.15 15.59 -61.73 25.51 Z " fill="#0B1340"/>
<path d="M0 0 C10.23 0 20.46 0 31 0 C31 36.96 31 73.92 31 112 C20.77 112 10.54 112 0 112 C0 75.04 0 38.08 0 0 Z " fill="#0B1340"/>
<path d="M0 0 C35.92 -0.09 71.84 -0.17 107.76 -0.25 C108.47 -0.26 109.17 -0.26 109.89 -0.26 C185.21 -0.43 260.52 -0.58 335.84 -0.68 C337.51 -0.68 339.19 -0.68 340.86 -0.68 C375.97 -0.73 411.09 -0.77 446.2 -0.81 C463.84 -0.83 481.48 -0.85 499.12 -0.88 C501.78 -0.88 504.44 -0.88 507.1 -0.89 C548.08 -0.93 589.05 -1 630.03 -1.1 C630.47 -1.1 630.47 -1.1 632.7 -1.11 C646.9 -1.14 661.11 -1.18 675.31 -1.21 C716.22 -1.32 757.14 -1.42 798.05 -1.46 C798.47 -1.46 798.47 -1.46 800.6 -1.46 C819.07 -1.48 837.53 -1.49 856 -1.5 C863.43 -1.51 870.86 -1.51 878.3 -1.52 C879.11 -1.52 879.92 -1.52 880.76 -1.52 C906.97 -1.54 933.17 -1.61 959.38 -1.7 C985.78 -1.8 1012.17 -1.84 1038.57 -1.82 C1042.22 -1.81 1045.87 -1.81 1049.51 -1.81 C1050.23 -1.81 1050.94 -1.81 1051.68 -1.81 C1063.01 -1.8 1074.33 -1.85 1085.65 -1.92 C1096.79 -1.99 1107.92 -2 1119.05 -1.95 C1125.01 -1.93 1130.97 -1.93 1136.92 -2 C1142.34 -2.06 1147.76 -2.05 1153.18 -1.99 C1155.13 -1.97 1157.07 -1.99 1159.02 -2.04 C1173.1 -2.34 1173.1 -2.34 1177.91 1.54 C1181.45 5.31 1184.13 9.49 1186.73 13.94 C1188.8 17.3 1191.27 20.32 1193.75 23.38 C1198 28.7 1198 28.7 1198 31 C1162.1 31.07 1126.2 31.14 1090.3 31.21 C1089.59 31.21 1088.89 31.21 1088.17 31.21 C1012.9 31.35 937.63 31.47 862.36 31.55 C860.69 31.55 859.02 31.55 857.35 31.56 C822.26 31.59 787.16 31.63 752.07 31.66 C734.45 31.68 716.82 31.69 699.19 31.71 C696.53 31.71 693.88 31.72 691.22 31.72 C650.27 31.76 609.32 31.81 568.37 31.89 C567.49 31.89 566.61 31.9 565.7 31.9 C551.51 31.93 537.31 31.96 523.11 31.99 C482.22 32.07 441.34 32.15 400.45 32.18 C399.61 32.19 398.77 32.19 397.9 32.19 C379.45 32.2 360.99 32.21 342.54 32.22 C335.11 32.23 327.69 32.23 320.26 32.23 C319.86 32.23 319.86 32.23 317.8 32.23 C291.61 32.25 265.42 32.3 239.23 32.38 C212.85 32.46 186.47 32.5 160.09 32.48 C156.44 32.47 152.8 32.47 149.15 32.47 C148.8 32.47 148.8 32.47 146.99 32.47 C135.67 32.46 124.35 32.5 113.03 32.56 C101.91 32.62 90.78 32.62 79.66 32.58 C73.7 32.56 67.75 32.57 61.8 32.62 C56.38 32.68 50.97 32.67 45.56 32.61 C43.61 32.6 41.66 32.62 39.71 32.65 C25.58 32.91 25.58 32.91 21.26 29.71 C17.78 26.23 15.41 22.26 13 18 C12.01 16.67 10.99 15.35 9.94 14.06 C9.16 13.05 8.37 12.04 7.56 11 C6.76 9.97 5.96 8.94 5.13 7.88 C3.24 5.32 1.61 2.74 0 0 Z " fill="#FF3366"/>
</svg>